<svg width="1448" height="908" viewBox="0 0 1448 908" fill="none" xmlns="http://www.w3.org/2000/svg">
<g filter="url(#filter0_d_0_139)">
<rect x="4.5" y="0.5" width="1439" height="899" rx="31.5" stroke="black" shape-rendering="crispEdges"/>
<mask id="path-3-outside-1_0_139" maskUnits="userSpaceOnUse" x="586" y="397" width="274" height="46" fill="black">
<rect fill="white" x="586" y="397" width="274" height="46"/>
<path d="M603.287 402.069H608.816V438.805L613.747 440.088V441H598.357V440.088L603.287 438.805V402.069ZM621.784 402.924H590.32L593.398 402.382L588.239 412.899L587.27 412.699L588.895 398.905H589.408L593.54 401.413L591.004 400.957H621.1L618.563 401.413L622.696 398.905H623.209L624.833 412.699L623.864 412.899L618.734 402.382L621.784 402.924ZM643.653 440.145L647.843 439.147V422.161C647.843 420.964 647.615 419.957 647.159 419.14C646.722 418.304 646.057 417.677 645.164 417.259C644.271 416.841 643.131 416.632 641.744 416.632C640.243 416.632 638.818 416.86 637.469 417.316C636.139 417.753 635.084 418.238 634.305 418.77L633.735 418.086C635.084 416.984 636.272 416.081 637.298 415.378C638.343 414.656 639.293 414.096 640.148 413.697C641.003 413.298 641.829 413.022 642.627 412.87C643.444 412.699 644.299 412.614 645.192 412.614C647.852 412.614 649.781 413.355 650.978 414.837C652.175 416.319 652.773 418.675 652.773 421.905V439.147L656.934 440.145V441H643.653V440.145ZM639.036 441H625.784V440.145L629.916 439.147V404.292C629.669 404.121 629.327 403.921 628.89 403.693C628.472 403.465 627.959 403.209 627.351 402.924C626.762 402.639 626.097 402.335 625.356 402.012V401.47L634.704 399.219H634.961L634.875 413.326V439.147L639.036 440.145V441ZM675.757 422.988L676.127 424.413C673.562 425.154 671.482 425.876 669.886 426.579C668.29 427.263 667.064 427.956 666.209 428.659C665.354 429.362 664.765 430.103 664.442 430.882C664.138 431.661 663.986 432.516 663.986 433.447C663.986 434.986 664.433 436.155 665.326 436.953C666.219 437.732 667.311 438.121 668.603 438.121C669.648 438.121 670.57 437.903 671.368 437.466C672.166 437.029 672.793 436.411 673.249 435.613C673.724 434.796 673.961 433.837 673.961 432.735V420.451C673.961 418.646 673.515 417.269 672.622 416.319C671.729 415.369 670.351 414.894 668.489 414.894C667.653 414.894 666.789 414.97 665.896 415.122C665.022 415.274 664.3 415.502 663.73 415.806L665.212 414.609C665.155 415.255 665.069 415.929 664.955 416.632C664.841 417.316 664.699 417.934 664.528 418.485C664.357 419.036 664.148 419.454 663.901 419.739C663.654 420.062 663.283 420.309 662.789 420.48C662.295 420.632 661.792 420.708 661.279 420.708C660.614 420.708 660.082 420.575 659.683 420.309C659.303 420.024 659.113 419.615 659.113 419.083C659.113 418.342 659.464 417.592 660.167 416.832C660.889 416.072 661.82 415.378 662.96 414.751C664.1 414.124 665.335 413.621 666.665 413.241C668.014 412.861 669.316 412.671 670.57 412.671C672.565 412.671 674.17 412.975 675.386 413.583C676.621 414.172 677.514 415.008 678.065 416.091C678.616 417.174 678.892 418.466 678.892 419.967V435.784C678.892 436.392 678.987 436.896 679.177 437.295C679.367 437.675 679.633 437.96 679.975 438.15C680.336 438.321 680.754 438.406 681.229 438.406C681.818 438.406 682.407 438.311 682.996 438.121C683.604 437.912 684.221 437.589 684.848 437.152V438.093C683.613 439.537 682.483 440.477 681.457 440.914C680.45 441.333 679.424 441.542 678.379 441.542C677.315 441.542 676.46 441.304 675.814 440.829C675.168 440.354 674.693 439.67 674.389 438.777C674.104 437.865 673.942 436.791 673.904 435.556L674.018 435.471C673.714 436.649 673.201 437.694 672.479 438.606C671.776 439.518 670.921 440.24 669.914 440.772C668.926 441.304 667.834 441.57 666.637 441.57C664.414 441.57 662.561 440.972 661.079 439.774C659.597 438.577 658.856 436.829 658.856 434.53C658.856 433.333 659.065 432.269 659.483 431.338C659.92 430.407 660.728 429.524 661.906 428.688C663.103 427.833 664.813 426.959 667.036 426.066C669.278 425.154 672.185 424.128 675.757 422.988ZM693.558 417.829V439.147L697.719 440.145V441H684.467V440.145L688.628 439.147V418.057C688.324 417.829 687.877 417.544 687.288 417.202C686.718 416.86 685.787 416.338 684.495 415.635V415.065L693.074 412.386H693.33L693.558 417.829ZM702.336 440.145L706.526 439.147V422.161C706.526 420.964 706.298 419.957 705.842 419.14C705.405 418.304 704.74 417.677 703.847 417.259C702.954 416.841 701.814 416.632 700.427 416.632C698.926 416.632 697.501 416.86 696.152 417.316C694.822 417.753 693.767 418.238 692.988 418.77L692.418 418.086C693.767 416.984 694.955 416.081 695.981 415.378C697.026 414.656 697.976 414.096 698.831 413.697C699.705 413.298 700.541 413.022 701.339 412.87C702.137 412.699 702.982 412.614 703.875 412.614C706.535 412.614 708.464 413.355 709.661 414.837C710.858 416.319 711.456 418.675 711.456 421.905V439.147L715.617 440.145V441H702.336V440.145ZM728.871 425.068L729.84 423.843L743.948 439.176L747.254 440.145V441H734.058V440.145L737.792 439.261L726.107 426.579H724.197V424.983H726.648L738.362 415.122L734.286 414.21V413.184H745.116V414.21L741.069 415.179L728.871 425.068ZM725.138 439.147L729.299 440.145V441H716.046V440.145L720.179 439.147V404.292C719.932 404.121 719.59 403.921 719.153 403.693C718.735 403.465 718.222 403.209 717.614 402.924C717.025 402.639 716.36 402.335 715.619 402.012V401.47L724.967 399.219H725.223L725.138 403.864V439.147ZM758.755 403.18L754.366 401.869V400.957H770.098V401.869L764.94 403.123L777.85 421.962L776.568 421.933L787.512 403.266L782.325 401.869V400.957H794.038V401.869L789.678 403.323L777.85 422.874V438.805L782.781 440.088V441H767.391V440.088L772.35 438.805V422.874L758.755 403.18ZM802.119 440.06C803.848 440.06 805.32 439.584 806.536 438.634C807.752 437.684 808.674 436.269 809.301 434.388C809.947 432.488 810.27 430.122 810.27 427.291C810.27 424.403 809.956 421.99 809.329 420.052C808.702 418.095 807.781 416.623 806.565 415.635C805.368 414.628 803.905 414.124 802.176 414.124C800.447 414.124 798.974 414.599 797.758 415.549C796.542 416.499 795.611 417.924 794.965 419.824C794.338 421.705 794.025 424.052 794.025 426.864C794.025 429.733 794.338 432.155 794.965 434.131C795.592 436.088 796.504 437.57 797.701 438.577C798.917 439.565 800.39 440.06 802.119 440.06ZM802.033 441.57C799.506 441.57 797.217 440.962 795.165 439.746C793.132 438.511 791.517 436.81 790.32 434.644C789.142 432.459 788.553 429.961 788.553 427.149C788.553 424.318 789.161 421.81 790.377 419.625C791.593 417.421 793.236 415.701 795.307 414.466C797.397 413.231 799.715 412.614 802.261 412.614C804.845 412.614 807.154 413.231 809.187 414.466C811.22 415.682 812.825 417.373 814.003 419.539C815.181 421.705 815.77 424.204 815.77 427.035C815.77 429.866 815.143 432.383 813.889 434.587C812.654 436.772 810.992 438.482 808.902 439.717C806.831 440.953 804.541 441.57 802.033 441.57ZM826.474 432.279C826.474 433.514 826.673 434.54 827.072 435.357C827.49 436.155 828.136 436.753 829.01 437.152C829.884 437.532 831.034 437.722 832.459 437.722C833.903 437.722 835.271 437.494 836.563 437.038C837.874 436.563 838.909 436.022 839.669 435.414L840.296 436.183C838.947 437.266 837.769 438.159 836.762 438.862C835.755 439.565 834.834 440.116 833.998 440.515C833.162 440.914 832.345 441.19 831.547 441.342C830.768 441.494 829.941 441.57 829.067 441.57C826.445 441.57 824.536 440.829 823.339 439.347C822.142 437.846 821.543 435.528 821.543 432.393V415.606L816.755 414.495V413.383L826.759 412.899L826.474 415.606V432.279ZM838.729 441.656L838.586 436.297V415.606L833.798 414.495V413.383L843.83 412.899L843.545 415.606V437.808C843.716 437.922 843.973 438.064 844.315 438.235C844.676 438.387 845.065 438.549 845.483 438.72C845.92 438.891 846.338 439.062 846.737 439.233C847.155 439.385 847.516 439.508 847.82 439.603V440.316L838.985 441.656H838.729ZM858.2 402.895L858.171 404.748C858.171 405.128 858.114 405.65 858 406.315C857.905 406.98 857.782 407.797 857.63 408.766C857.478 409.735 857.297 410.866 857.088 412.158C856.879 413.45 856.67 414.903 856.461 416.518C856.252 418.114 856.043 419.9 855.834 421.876C855.625 423.852 855.435 426.009 855.264 428.346H854.096C853.925 426.009 853.735 423.852 853.526 421.876C853.336 419.9 853.127 418.114 852.899 416.518C852.69 414.903 852.481 413.45 852.272 412.158C852.082 410.866 851.911 409.735 851.759 408.766C851.607 407.797 851.474 406.98 851.36 406.315C851.265 405.65 851.217 405.128 851.217 404.748L851.189 402.895C851.189 402.325 851.36 401.86 851.702 401.499C852.044 401.119 852.481 400.843 853.013 400.672C853.564 400.482 854.124 400.387 854.694 400.387C855.302 400.387 855.872 400.482 856.404 400.672C856.936 400.843 857.364 401.119 857.687 401.499C858.029 401.86 858.2 402.325 858.2 402.895ZM854.694 433.903C855.815 433.903 856.737 434.274 857.459 435.015C858.181 435.737 858.542 436.63 858.542 437.694C858.542 438.758 858.181 439.66 857.459 440.401C856.737 441.143 855.815 441.513 854.694 441.513C853.573 441.513 852.642 441.143 851.901 440.401C851.179 439.66 850.818 438.758 850.818 437.694C850.818 436.63 851.179 435.737 851.901 435.015C852.642 434.274 853.573 433.903 854.694 433.903Z"/>
</mask>
<path d="M603.287 402.069H608.816V438.805L613.747 440.088V441H598.357V440.088L603.287 438.805V402.069ZM621.784 402.924H590.32L593.398 402.382L588.239 412.899L587.27 412.699L588.895 398.905H589.408L593.54 401.413L591.004 400.957H621.1L618.563 401.413L622.696 398.905H623.209L624.833 412.699L623.864 412.899L618.734 402.382L621.784 402.924ZM643.653 440.145L647.843 439.147V422.161C647.843 420.964 647.615 419.957 647.159 419.14C646.722 418.304 646.057 417.677 645.164 417.259C644.271 416.841 643.131 416.632 641.744 416.632C640.243 416.632 638.818 416.86 637.469 417.316C636.139 417.753 635.084 418.238 634.305 418.77L633.735 418.086C635.084 416.984 636.272 416.081 637.298 415.378C638.343 414.656 639.293 414.096 640.148 413.697C641.003 413.298 641.829 413.022 642.627 412.87C643.444 412.699 644.299 412.614 645.192 412.614C647.852 412.614 649.781 413.355 650.978 414.837C652.175 416.319 652.773 418.675 652.773 421.905V439.147L656.934 440.145V441H643.653V440.145ZM639.036 441H625.784V440.145L629.916 439.147V404.292C629.669 404.121 629.327 403.921 628.89 403.693C628.472 403.465 627.959 403.209 627.351 402.924C626.762 402.639 626.097 402.335 625.356 402.012V401.47L634.704 399.219H634.961L634.875 413.326V439.147L639.036 440.145V441ZM675.757 422.988L676.127 424.413C673.562 425.154 671.482 425.876 669.886 426.579C668.29 427.263 667.064 427.956 666.209 428.659C665.354 429.362 664.765 430.103 664.442 430.882C664.138 431.661 663.986 432.516 663.986 433.447C663.986 434.986 664.433 436.155 665.326 436.953C666.219 437.732 667.311 438.121 668.603 438.121C669.648 438.121 670.57 437.903 671.368 437.466C672.166 437.029 672.793 436.411 673.249 435.613C673.724 434.796 673.961 433.837 673.961 432.735V420.451C673.961 418.646 673.515 417.269 672.622 416.319C671.729 415.369 670.351 414.894 668.489 414.894C667.653 414.894 666.789 414.97 665.896 415.122C665.022 415.274 664.3 415.502 663.73 415.806L665.212 414.609C665.155 415.255 665.069 415.929 664.955 416.632C664.841 417.316 664.699 417.934 664.528 418.485C664.357 419.036 664.148 419.454 663.901 419.739C663.654 420.062 663.283 420.309 662.789 420.48C662.295 420.632 661.792 420.708 661.279 420.708C660.614 420.708 660.082 420.575 659.683 420.309C659.303 420.024 659.113 419.615 659.113 419.083C659.113 418.342 659.464 417.592 660.167 416.832C660.889 416.072 661.82 415.378 662.96 414.751C664.1 414.124 665.335 413.621 666.665 413.241C668.014 412.861 669.316 412.671 670.57 412.671C672.565 412.671 674.17 412.975 675.386 413.583C676.621 414.172 677.514 415.008 678.065 416.091C678.616 417.174 678.892 418.466 678.892 419.967V435.784C678.892 436.392 678.987 436.896 679.177 437.295C679.367 437.675 679.633 437.96 679.975 438.15C680.336 438.321 680.754 438.406 681.229 438.406C681.818 438.406 682.407 438.311 682.996 438.121C683.604 437.912 684.221 437.589 684.848 437.152V438.093C683.613 439.537 682.483 440.477 681.457 440.914C680.45 441.333 679.424 441.542 678.379 441.542C677.315 441.542 676.46 441.304 675.814 440.829C675.168 440.354 674.693 439.67 674.389 438.777C674.104 437.865 673.942 436.791 673.904 435.556L674.018 435.471C673.714 436.649 673.201 437.694 672.479 438.606C671.776 439.518 670.921 440.24 669.914 440.772C668.926 441.304 667.834 441.57 666.637 441.57C664.414 441.57 662.561 440.972 661.079 439.774C659.597 438.577 658.856 436.829 658.856 434.53C658.856 433.333 659.065 432.269 659.483 431.338C659.92 430.407 660.728 429.524 661.906 428.688C663.103 427.833 664.813 426.959 667.036 426.066C669.278 425.154 672.185 424.128 675.757 422.988ZM693.558 417.829V439.147L697.719 440.145V441H684.467V440.145L688.628 439.147V418.057C688.324 417.829 687.877 417.544 687.288 417.202C686.718 416.86 685.787 416.338 684.495 415.635V415.065L693.074 412.386H693.33L693.558 417.829ZM702.336 440.145L706.526 439.147V422.161C706.526 420.964 706.298 419.957 705.842 419.14C705.405 418.304 704.74 417.677 703.847 417.259C702.954 416.841 701.814 416.632 700.427 416.632C698.926 416.632 697.501 416.86 696.152 417.316C694.822 417.753 693.767 418.238 692.988 418.77L692.418 418.086C693.767 416.984 694.955 416.081 695.981 415.378C697.026 414.656 697.976 414.096 698.831 413.697C699.705 413.298 700.541 413.022 701.339 412.87C702.137 412.699 702.982 412.614 703.875 412.614C706.535 412.614 708.464 413.355 709.661 414.837C710.858 416.319 711.456 418.675 711.456 421.905V439.147L715.617 440.145V441H702.336V440.145ZM728.871 425.068L729.84 423.843L743.948 439.176L747.254 440.145V441H734.058V440.145L737.792 439.261L726.107 426.579H724.197V424.983H726.648L738.362 415.122L734.286 414.21V413.184H745.116V414.21L741.069 415.179L728.871 425.068ZM725.138 439.147L729.299 440.145V441H716.046V440.145L720.179 439.147V404.292C719.932 404.121 719.59 403.921 719.153 403.693C718.735 403.465 718.222 403.209 717.614 402.924C717.025 402.639 716.36 402.335 715.619 402.012V401.47L724.967 399.219H725.223L725.138 403.864V439.147ZM758.755 403.18L754.366 401.869V400.957H770.098V401.869L764.94 403.123L777.85 421.962L776.568 421.933L787.512 403.266L782.325 401.869V400.957H794.038V401.869L789.678 403.323L777.85 422.874V438.805L782.781 440.088V441H767.391V440.088L772.35 438.805V422.874L758.755 403.18ZM802.119 440.06C803.848 440.06 805.32 439.584 806.536 438.634C807.752 437.684 808.674 436.269 809.301 434.388C809.947 432.488 810.27 430.122 810.27 427.291C810.27 424.403 809.956 421.99 809.329 420.052C808.702 418.095 807.781 416.623 806.565 415.635C805.368 414.628 803.905 414.124 802.176 414.124C800.447 414.124 798.974 414.599 797.758 415.549C796.542 416.499 795.611 417.924 794.965 419.824C794.338 421.705 794.025 424.052 794.025 426.864C794.025 429.733 794.338 432.155 794.965 434.131C795.592 436.088 796.504 437.57 797.701 438.577C798.917 439.565 800.39 440.06 802.119 440.06ZM802.033 441.57C799.506 441.57 797.217 440.962 795.165 439.746C793.132 438.511 791.517 436.81 790.32 434.644C789.142 432.459 788.553 429.961 788.553 427.149C788.553 424.318 789.161 421.81 790.377 419.625C791.593 417.421 793.236 415.701 795.307 414.466C797.397 413.231 799.715 412.614 802.261 412.614C804.845 412.614 807.154 413.231 809.187 414.466C811.22 415.682 812.825 417.373 814.003 419.539C815.181 421.705 815.77 424.204 815.77 427.035C815.77 429.866 815.143 432.383 813.889 434.587C812.654 436.772 810.992 438.482 808.902 439.717C806.831 440.953 804.541 441.57 802.033 441.57ZM826.474 432.279C826.474 433.514 826.673 434.54 827.072 435.357C827.49 436.155 828.136 436.753 829.01 437.152C829.884 437.532 831.034 437.722 832.459 437.722C833.903 437.722 835.271 437.494 836.563 437.038C837.874 436.563 838.909 436.022 839.669 435.414L840.296 436.183C838.947 437.266 837.769 438.159 836.762 438.862C835.755 439.565 834.834 440.116 833.998 440.515C833.162 440.914 832.345 441.19 831.547 441.342C830.768 441.494 829.941 441.57 829.067 441.57C826.445 441.57 824.536 440.829 823.339 439.347C822.142 437.846 821.543 435.528 821.543 432.393V415.606L816.755 414.495V413.383L826.759 412.899L826.474 415.606V432.279ZM838.729 441.656L838.586 436.297V415.606L833.798 414.495V413.383L843.83 412.899L843.545 415.606V437.808C843.716 437.922 843.973 438.064 844.315 438.235C844.676 438.387 845.065 438.549 845.483 438.72C845.92 438.891 846.338 439.062 846.737 439.233C847.155 439.385 847.516 439.508 847.82 439.603V440.316L838.985 441.656H838.729ZM858.2 402.895L858.171 404.748C858.171 405.128 858.114 405.65 858 406.315C857.905 406.98 857.782 407.797 857.63 408.766C857.478 409.735 857.297 410.866 857.088 412.158C856.879 413.45 856.67 414.903 856.461 416.518C856.252 418.114 856.043 419.9 855.834 421.876C855.625 423.852 855.435 426.009 855.264 428.346H854.096C853.925 426.009 853.735 423.852 853.526 421.876C853.336 419.9 853.127 418.114 852.899 416.518C852.69 414.903 852.481 413.45 852.272 412.158C852.082 410.866 851.911 409.735 851.759 408.766C851.607 407.797 851.474 406.98 851.36 406.315C851.265 405.65 851.217 405.128 851.217 404.748L851.189 402.895C851.189 402.325 851.36 401.86 851.702 401.499C852.044 401.119 852.481 400.843 853.013 400.672C853.564 400.482 854.124 400.387 854.694 400.387C855.302 400.387 855.872 400.482 856.404 400.672C856.936 400.843 857.364 401.119 857.687 401.499C858.029 401.86 858.2 402.325 858.2 402.895ZM854.694 433.903C855.815 433.903 856.737 434.274 857.459 435.015C858.181 435.737 858.542 436.63 858.542 437.694C858.542 438.758 858.181 439.66 857.459 440.401C856.737 441.143 855.815 441.513 854.694 441.513C853.573 441.513 852.642 441.143 851.901 440.401C851.179 439.66 850.818 438.758 850.818 437.694C850.818 436.63 851.179 435.737 851.901 435.015C852.642 434.274 853.573 433.903 854.694 433.903Z" fill="white"/>
<path d="M603.287 402.069V401.069H602.287V402.069H603.287ZM608.816 402.069H609.816V401.069H608.816V402.069ZM608.816 438.805H607.816V439.579L608.565 439.773L608.816 438.805ZM613.747 440.088H614.747V439.315L613.999 439.12L613.747 440.088ZM613.747 441V442H614.747V441H613.747ZM598.357 441H597.357V442H598.357V441ZM598.357 440.088L598.105 439.12L597.357 439.315V440.088H598.357ZM603.287 438.805L603.539 439.773L604.287 439.579V438.805H603.287ZM621.784 402.924V403.924L621.959 401.939L621.784 402.924ZM590.32 402.924L590.147 401.939L590.32 403.924V402.924ZM593.398 402.382L594.296 402.823L595.162 401.057L593.225 401.398L593.398 402.382ZM588.239 412.899L588.038 413.878L588.796 414.035L589.137 413.339L588.239 412.899ZM587.27 412.699L586.277 412.583L586.17 413.494L587.069 413.679L587.27 412.699ZM588.895 398.905V397.905H588.006L587.902 398.789L588.895 398.905ZM589.408 398.905L589.927 398.051L589.688 397.905H589.408V398.905ZM593.54 401.413L593.363 402.398L594.059 400.559L593.54 401.413ZM591.004 400.957V399.957L590.827 401.942L591.004 400.957ZM621.1 400.957L621.277 401.942L621.1 399.957V400.957ZM618.563 401.413L618.045 400.559L618.74 402.398L618.563 401.413ZM622.696 398.905V397.905H622.416L622.177 398.051L622.696 398.905ZM623.209 398.905L624.202 398.789L624.098 397.905H623.209V398.905ZM624.833 412.699L625.035 413.679L625.934 413.494L625.827 412.583L624.833 412.699ZM623.864 412.899L622.966 413.337L623.306 414.035L624.066 413.878L623.864 412.899ZM618.734 402.382L618.909 401.398L616.974 401.054L617.836 402.821L618.734 402.382ZM603.287 403.069H608.816V401.069H603.287V403.069ZM607.816 402.069V438.805H609.816V402.069H607.816ZM608.565 439.773L613.495 441.056L613.999 439.12L609.068 437.838L608.565 439.773ZM612.747 440.088V441H614.747V440.088H612.747ZM613.747 440H598.357V442H613.747V440ZM599.357 441V440.088H597.357V441H599.357ZM598.609 441.056L603.539 439.773L603.036 437.838L598.105 439.12L598.609 441.056ZM604.287 438.805V402.069H602.287V438.805H604.287ZM621.784 401.924H590.32V403.924H621.784V401.924ZM590.493 403.909L593.571 403.367L593.225 401.398L590.147 401.939L590.493 403.909ZM592.5 401.942L587.342 412.459L589.137 413.339L594.296 402.823L592.5 401.942ZM588.441 411.92L587.472 411.72L587.069 413.679L588.038 413.878L588.441 411.92ZM588.264 412.816L589.888 399.022L587.902 398.789L586.277 412.583L588.264 412.816ZM588.895 399.905H589.408V397.905H588.895V399.905ZM588.889 399.76L593.022 402.268L594.059 400.559L589.927 398.051L588.889 399.76ZM593.717 400.429L591.181 399.973L590.827 401.942L593.363 402.398L593.717 400.429ZM591.004 401.957H621.1V399.957H591.004V401.957ZM620.923 399.973L618.386 400.429L618.74 402.398L621.277 401.942L620.923 399.973ZM619.082 402.268L623.215 399.76L622.177 398.051L618.045 400.559L619.082 402.268ZM622.696 399.905H623.209V397.905H622.696V399.905ZM622.216 399.022L623.84 412.816L625.827 412.583L624.202 398.789L622.216 399.022ZM624.632 411.72L623.663 411.92L624.066 413.878L625.035 413.679L624.632 411.72ZM624.763 412.461L619.633 401.944L617.836 402.821L622.966 413.337L624.763 412.461ZM618.56 403.367L621.609 403.909L621.959 401.939L618.909 401.398L618.56 403.367ZM643.653 440.145L643.422 439.172L642.653 439.355V440.145H643.653ZM647.843 439.147L648.074 440.12L648.843 439.937V439.147H647.843ZM647.159 419.14L646.272 419.604L646.279 419.616L646.285 419.628L647.159 419.14ZM645.164 417.259L645.588 416.354L645.588 416.354L645.164 417.259ZM637.469 417.316L637.781 418.267L637.789 418.264L637.469 417.316ZM634.305 418.77L633.537 419.41L634.119 420.108L634.869 419.596L634.305 418.77ZM633.735 418.086L633.103 417.312L632.32 417.95L632.967 418.726L633.735 418.086ZM637.298 415.378L637.863 416.203L637.866 416.201L637.298 415.378ZM640.148 413.697L639.725 412.791L639.725 412.791L640.148 413.697ZM642.627 412.87L642.814 413.853L642.823 413.851L642.832 413.849L642.627 412.87ZM650.978 414.837L650.2 415.465L650.2 415.465L650.978 414.837ZM652.773 439.147H651.773V439.936L652.54 440.12L652.773 439.147ZM656.934 440.145H657.934V439.356L657.167 439.173L656.934 440.145ZM656.934 441V442H657.934V441H656.934ZM643.653 441H642.653V442H643.653V441ZM639.036 441V442H640.036V441H639.036ZM625.784 441H624.784V442H625.784V441ZM625.784 440.145L625.549 439.173L624.784 439.358V440.145H625.784ZM629.916 439.147L630.151 440.12L630.916 439.935V439.147H629.916ZM629.916 404.292H630.916V403.768L630.485 403.47L629.916 404.292ZM628.89 403.693L628.411 404.571L628.419 404.576L628.428 404.58L628.89 403.693ZM627.351 402.924L626.916 403.824L626.927 403.829L627.351 402.924ZM625.356 402.012H624.356V402.667L624.957 402.929L625.356 402.012ZM625.356 401.47L625.122 400.498L624.356 400.683V401.47H625.356ZM634.704 399.219V398.219H634.585L634.47 398.247L634.704 399.219ZM634.961 399.219L635.961 399.225L635.967 398.219H634.961V399.219ZM634.875 413.326L633.875 413.32V413.326H634.875ZM634.875 439.147H633.875V439.936L634.642 440.12L634.875 439.147ZM639.036 440.145H640.036V439.356L639.269 439.173L639.036 440.145ZM643.885 441.118L648.074 440.12L647.611 438.175L643.422 439.172L643.885 441.118ZM648.843 439.147V422.161H646.843V439.147H648.843ZM648.843 422.161C648.843 420.84 648.591 419.655 648.032 418.653L646.285 419.628C646.638 420.26 646.843 421.089 646.843 422.161H648.843ZM648.045 418.677C647.502 417.638 646.669 416.86 645.588 416.354L644.74 418.165C645.444 418.495 645.942 418.971 646.272 419.604L648.045 418.677ZM645.588 416.354C644.519 415.854 643.222 415.632 641.744 415.632V417.632C643.04 417.632 644.022 417.829 644.74 418.165L645.588 416.354ZM641.744 415.632C640.14 415.632 638.606 415.876 637.148 416.369L637.789 418.264C639.029 417.845 640.346 417.632 641.744 417.632V415.632ZM637.156 416.366C635.776 416.82 634.626 417.34 633.741 417.944L634.869 419.596C635.543 419.136 636.501 418.687 637.781 418.267L637.156 416.366ZM635.073 418.13L634.503 417.446L632.967 418.726L633.537 419.41L635.073 418.13ZM634.368 418.86C635.703 417.77 636.867 416.886 637.863 416.203L636.732 414.554C635.676 415.277 634.465 416.198 633.103 417.312L634.368 418.86ZM637.866 416.201C638.88 415.501 639.78 414.972 640.571 414.603L639.725 412.791C638.805 413.22 637.806 413.812 636.729 414.556L637.866 416.201ZM640.571 414.603C641.362 414.234 642.11 413.987 642.814 413.853L642.44 411.888C641.549 412.058 640.643 412.362 639.725 412.791L640.571 414.603ZM642.832 413.849C643.577 413.693 644.363 413.614 645.192 413.614V411.614C644.235 411.614 643.311 411.706 642.422 411.892L642.832 413.849ZM645.192 413.614C647.676 413.614 649.26 414.301 650.2 415.465L651.756 414.209C650.302 412.409 648.028 411.614 645.192 411.614V413.614ZM650.2 415.465C651.183 416.682 651.773 418.759 651.773 421.905H653.773C653.773 418.591 653.167 415.956 651.756 414.209L650.2 415.465ZM651.773 421.905V439.147H653.773V421.905H651.773ZM652.54 440.12L656.701 441.117L657.167 439.173L653.006 438.175L652.54 440.12ZM655.934 440.145V441H657.934V440.145H655.934ZM656.934 440H643.653V442H656.934V440ZM644.653 441V440.145H642.653V441H644.653ZM639.036 440H625.784V442H639.036V440ZM626.784 441V440.145H624.784V441H626.784ZM626.018 441.117L630.151 440.12L629.682 438.175L625.549 439.173L626.018 441.117ZM630.916 439.147V404.292H628.916V439.147H630.916ZM630.485 403.47C630.19 403.265 629.806 403.044 629.353 402.807L628.428 404.58C628.848 404.799 629.149 404.977 629.347 405.114L630.485 403.47ZM629.369 402.816C628.928 402.575 628.395 402.309 627.776 402.019L626.927 403.829C627.523 404.109 628.017 404.356 628.411 404.571L629.369 402.816ZM627.787 402.024C627.183 401.732 626.506 401.422 625.756 401.095L624.957 402.929C625.688 403.248 626.341 403.546 626.916 403.824L627.787 402.024ZM626.356 402.012V401.47H624.356V402.012H626.356ZM625.59 402.443L634.938 400.191L634.47 398.247L625.122 400.498L625.59 402.443ZM634.704 400.219H634.961V398.219H634.704V400.219ZM633.961 399.213L633.875 413.32L635.875 413.333L635.961 399.225L633.961 399.213ZM633.875 413.326V439.147H635.875V413.326H633.875ZM634.642 440.12L638.803 441.117L639.269 439.173L635.108 438.175L634.642 440.12ZM638.036 440.145V441H640.036V440.145H638.036ZM675.757 422.988L676.724 422.736L676.459 421.714L675.453 422.035L675.757 422.988ZM676.127 424.413L676.405 425.374L677.34 425.104L677.095 424.161L676.127 424.413ZM669.886 426.579L670.28 427.498L670.289 427.494L669.886 426.579ZM666.209 428.659L666.844 429.432L666.844 429.432L666.209 428.659ZM664.442 430.882L663.518 430.499L663.514 430.509L663.511 430.519L664.442 430.882ZM665.326 436.953L664.659 437.699L664.668 437.707L665.326 436.953ZM671.368 437.466L670.887 436.589L670.887 436.589L671.368 437.466ZM673.249 435.613L672.384 435.111L672.38 435.117L673.249 435.613ZM665.896 415.122L665.728 414.136L665.724 414.137L665.896 415.122ZM663.73 415.806L663.101 415.028L664.2 416.688L663.73 415.806ZM665.212 414.609L666.208 414.697L666.415 412.352L664.583 413.831L665.212 414.609ZM664.955 416.632L665.942 416.797L665.942 416.793L664.955 416.632ZM664.528 418.485L665.483 418.781L665.483 418.781L664.528 418.485ZM663.901 419.739L663.145 419.084L663.125 419.107L663.106 419.132L663.901 419.739ZM662.789 420.48L663.083 421.436L663.1 421.431L663.116 421.425L662.789 420.48ZM659.683 420.309L659.083 421.109L659.105 421.126L659.128 421.141L659.683 420.309ZM660.167 416.832L659.442 416.143L659.433 416.153L660.167 416.832ZM662.96 414.751L663.442 415.628L663.442 415.628L662.96 414.751ZM666.665 413.241L666.394 412.278L666.39 412.279L666.665 413.241ZM675.386 413.583L674.939 414.477L674.947 414.482L674.956 414.486L675.386 413.583ZM678.065 416.091L677.174 416.544L677.174 416.544L678.065 416.091ZM679.177 437.295L678.274 437.725L678.278 437.734L678.282 437.742L679.177 437.295ZM679.975 438.15L679.489 439.024L679.517 439.04L679.547 439.054L679.975 438.15ZM682.996 438.121L683.303 439.073L683.312 439.07L683.321 439.067L682.996 438.121ZM684.848 437.152H685.848V435.237L684.276 436.332L684.848 437.152ZM684.848 438.093L685.608 438.743L685.848 438.462V438.093H684.848ZM681.457 440.914L681.84 441.838L681.848 441.835L681.457 440.914ZM674.389 438.777L673.434 439.075L673.438 439.087L673.442 439.099L674.389 438.777ZM673.904 435.556L673.304 434.756L672.889 435.068L672.905 435.587L673.904 435.556ZM674.018 435.471L674.986 435.721L675.699 432.961L673.418 434.671L674.018 435.471ZM672.479 438.606L671.695 437.985L671.687 437.995L672.479 438.606ZM669.914 440.772L669.447 439.888L669.44 439.892L669.914 440.772ZM661.079 439.774L661.707 438.997L661.707 438.997L661.079 439.774ZM659.483 431.338L658.578 430.914L658.574 430.921L658.571 430.929L659.483 431.338ZM661.906 428.688L662.484 429.504L662.487 429.502L661.906 428.688ZM667.036 426.066L667.408 426.994L667.412 426.992L667.036 426.066ZM674.789 423.24L675.159 424.665L677.095 424.161L676.724 422.736L674.789 423.24ZM675.85 423.452C673.262 424.2 671.135 424.936 669.483 425.664L670.289 427.494C671.829 426.816 673.863 426.108 676.405 425.374L675.85 423.452ZM669.492 425.66C667.852 426.363 666.531 427.1 665.574 427.887L666.844 429.432C667.597 428.813 668.727 428.163 670.28 427.498L669.492 425.66ZM665.574 427.887C664.631 428.663 663.921 429.529 663.518 430.499L665.366 431.266C665.609 430.678 666.078 430.062 666.844 429.432L665.574 427.887ZM663.511 430.519C663.156 431.426 662.986 432.406 662.986 433.447H664.986C664.986 432.627 665.12 431.897 665.374 431.246L663.511 430.519ZM662.986 433.447C662.986 435.185 663.497 436.66 664.659 437.699L665.992 436.207C665.368 435.65 664.986 434.788 664.986 433.447H662.986ZM664.668 437.707C665.76 438.659 667.093 439.121 668.603 439.121V437.121C667.529 437.121 666.677 436.805 665.983 436.199L664.668 437.707ZM668.603 439.121C669.791 439.121 670.882 438.872 671.848 438.343L670.887 436.589C670.257 436.934 669.505 437.121 668.603 437.121V439.121ZM671.848 438.343C672.81 437.816 673.57 437.066 674.117 436.11L672.38 435.117C672.015 435.757 671.522 436.242 670.887 436.589L671.848 438.343ZM674.113 436.116C674.691 435.123 674.961 433.984 674.961 432.735H672.961C672.961 433.69 672.757 434.47 672.384 435.111L674.113 436.116ZM674.961 432.735V420.451H672.961V432.735H674.961ZM674.961 420.451C674.961 418.491 674.475 416.831 673.35 415.634L671.893 417.004C672.554 417.707 672.961 418.802 672.961 420.451H674.961ZM673.35 415.634C672.199 414.41 670.507 413.894 668.489 413.894V415.894C670.195 415.894 671.258 416.328 671.893 417.004L673.35 415.634ZM668.489 413.894C667.592 413.894 666.672 413.976 665.728 414.136L666.063 416.108C666.906 415.964 667.714 415.894 668.489 415.894V413.894ZM665.724 414.137C664.782 414.301 663.95 414.555 663.259 414.924L664.2 416.688C664.649 416.449 665.261 416.247 666.067 416.107L665.724 414.137ZM664.358 416.584L665.84 415.387L664.583 413.831L663.101 415.028L664.358 416.584ZM664.216 414.521C664.161 415.141 664.079 415.791 663.968 416.472L665.942 416.793C666.06 416.068 666.148 415.369 666.208 414.697L664.216 414.521ZM663.969 416.468C663.861 417.116 663.728 417.688 663.573 418.189L665.483 418.781C665.669 418.18 665.822 417.517 665.942 416.797L663.969 416.468ZM663.573 418.189C663.423 418.671 663.266 418.944 663.145 419.084L664.656 420.394C665.029 419.964 665.29 419.401 665.483 418.781L663.573 418.189ZM663.106 419.132C663.008 419.26 662.823 419.41 662.462 419.535L663.116 421.425C663.743 421.208 664.299 420.864 664.695 420.346L663.106 419.132ZM662.495 419.524C662.096 419.647 661.691 419.708 661.279 419.708V421.708C661.892 421.708 662.495 421.617 663.083 421.436L662.495 419.524ZM661.279 419.708C660.737 419.708 660.42 419.599 660.237 419.477L659.128 421.141C659.743 421.551 660.49 421.708 661.279 421.708V419.708ZM660.283 419.509C660.187 419.437 660.113 419.344 660.113 419.083H658.113C658.113 419.887 658.418 420.611 659.083 421.109L660.283 419.509ZM660.113 419.083C660.113 418.679 660.301 418.16 660.901 417.511L659.433 416.153C658.627 417.024 658.113 418.006 658.113 419.083H660.113ZM660.892 417.521C661.529 416.851 662.371 416.217 663.442 415.628L662.478 413.875C661.269 414.54 660.25 415.293 659.442 416.143L660.892 417.521ZM663.442 415.628C664.512 415.039 665.677 414.563 666.94 414.203L666.39 412.279C664.993 412.679 663.688 413.21 662.478 413.875L663.442 415.628ZM666.936 414.204C668.207 413.846 669.417 413.671 670.57 413.671V411.671C669.214 411.671 667.821 411.876 666.394 412.278L666.936 414.204ZM670.57 413.671C672.476 413.671 673.911 413.964 674.939 414.477L675.833 412.689C674.429 411.986 672.653 411.671 670.57 411.671V413.671ZM674.956 414.486C676.018 414.992 676.735 415.682 677.174 416.544L678.956 415.638C678.293 414.334 677.224 413.352 675.817 412.68L674.956 414.486ZM677.174 416.544C677.639 417.458 677.892 418.587 677.892 419.967H679.892C679.892 418.345 679.594 416.89 678.956 415.638L677.174 416.544ZM677.892 419.967V435.784H679.892V419.967H677.892ZM677.892 435.784C677.892 436.489 678 437.151 678.274 437.725L680.079 436.865C679.973 436.641 679.892 436.296 679.892 435.784H677.892ZM678.282 437.742C678.554 438.286 678.956 438.728 679.489 439.024L680.46 437.276C680.31 437.192 680.179 437.064 680.071 436.848L678.282 437.742ZM679.547 439.054C680.064 439.299 680.633 439.406 681.229 439.406V437.406C680.874 437.406 680.607 437.343 680.403 437.246L679.547 439.054ZM681.229 439.406C681.927 439.406 682.62 439.294 683.303 439.073L682.689 437.17C682.194 437.329 681.708 437.406 681.229 437.406V439.406ZM683.321 439.067C684.031 438.823 684.731 438.453 685.42 437.973L684.276 436.332C683.711 436.726 683.176 437.002 682.671 437.176L683.321 439.067ZM683.848 437.152V438.093H685.848V437.152H683.848ZM684.088 437.443C682.892 438.841 681.882 439.646 681.065 439.994L681.848 441.835C683.083 441.309 684.334 440.233 685.608 438.743L684.088 437.443ZM681.073 439.991C680.182 440.361 679.286 440.542 678.379 440.542V442.542C679.561 442.542 680.717 442.304 681.84 441.838L681.073 439.991ZM678.379 440.542C677.459 440.542 676.832 440.337 676.406 440.023L675.221 441.635C676.087 442.271 677.171 442.542 678.379 442.542V440.542ZM676.406 440.023C675.952 439.69 675.585 439.189 675.335 438.455L673.442 439.099C673.8 440.151 674.383 441.018 675.221 441.635L676.406 440.023ZM675.343 438.479C675.092 437.674 674.94 436.695 674.904 435.526L672.905 435.587C672.945 436.888 673.115 438.056 673.434 439.075L675.343 438.479ZM674.504 436.357L674.618 436.271L673.418 434.671L673.304 434.756L674.504 436.357ZM673.05 435.221C672.779 436.27 672.327 437.188 671.695 437.985L673.263 439.227C674.076 438.2 674.649 437.028 674.986 435.721L673.05 435.221ZM671.687 437.995C671.071 438.795 670.326 439.423 669.447 439.888L670.381 441.656C671.516 441.057 672.482 440.241 673.271 439.217L671.687 437.995ZM669.44 439.892C668.607 440.34 667.68 440.57 666.637 440.57V442.57C667.988 442.57 669.245 442.268 670.388 441.652L669.44 439.892ZM666.637 440.57C664.602 440.57 662.983 440.027 661.707 438.997L660.451 440.552C662.139 441.916 664.225 442.57 666.637 442.57V440.57ZM661.707 438.997C660.51 438.029 659.856 436.597 659.856 434.53H657.856C657.856 437.062 658.685 439.126 660.451 440.552L661.707 438.997ZM659.856 434.53C659.856 433.451 660.044 432.53 660.395 431.748L658.571 430.929C658.086 432.009 657.856 433.216 657.856 434.53H659.856ZM660.388 431.763C660.728 431.039 661.393 430.278 662.484 429.504L661.327 427.872C660.062 428.77 659.112 429.776 658.578 430.914L660.388 431.763ZM662.487 429.502C663.592 428.713 665.219 427.873 667.408 426.994L666.663 425.138C664.406 426.045 662.614 426.953 661.324 427.874L662.487 429.502ZM667.412 426.992C669.621 426.094 672.502 425.077 676.061 423.941L675.453 422.035C671.868 423.179 668.934 424.214 666.659 425.14L667.412 426.992ZM693.558 417.829H694.558V417.809L694.557 417.788L693.558 417.829ZM693.558 439.147H692.558V439.936L693.325 440.12L693.558 439.147ZM697.719 440.145H698.719V439.356L697.952 439.173L697.719 440.145ZM697.719 441V442H698.719V441H697.719ZM684.467 441H683.467V442H684.467V441ZM684.467 440.145L684.233 439.173L683.467 439.356V440.145H684.467ZM688.628 439.147L688.861 440.12L689.628 439.936V439.147H688.628ZM688.628 418.057H689.628V417.557L689.228 417.257L688.628 418.057ZM687.288 417.202L686.774 418.06L686.78 418.064L686.786 418.067L687.288 417.202ZM684.495 415.635H683.495V416.229L684.017 416.513L684.495 415.635ZM684.495 415.065L684.197 414.11L683.495 414.33V415.065H684.495ZM693.074 412.386V411.386H692.921L692.775 411.431L693.074 412.386ZM693.33 412.386L694.329 412.344L694.289 411.386H693.33V412.386ZM702.336 440.145L702.104 439.172L701.336 439.355V440.145H702.336ZM706.526 439.147L706.757 440.12L707.526 439.937V439.147H706.526ZM705.842 419.14L704.955 419.604L704.962 419.616L704.968 419.628L705.842 419.14ZM703.847 417.259L704.27 416.354L704.27 416.354L703.847 417.259ZM696.152 417.316L696.464 418.267L696.472 418.264L696.152 417.316ZM692.988 418.77L692.22 419.41L692.802 420.108L693.552 419.596L692.988 418.77ZM692.418 418.086L691.785 417.312L691.003 417.95L691.65 418.726L692.418 418.086ZM695.981 415.378L696.546 416.203L696.549 416.201L695.981 415.378ZM698.831 413.697L698.415 412.787L698.408 412.791L698.831 413.697ZM701.339 412.87L701.526 413.853L701.537 413.851L701.548 413.848L701.339 412.87ZM709.661 414.837L710.438 414.209L710.438 414.209L709.661 414.837ZM711.456 439.147H710.456V439.936L711.223 440.12L711.456 439.147ZM715.617 440.145H716.617V439.356L715.85 439.173L715.617 440.145ZM715.617 441V442H716.617V441H715.617ZM702.336 441H701.336V442H702.336V441ZM692.558 417.829V439.147H694.558V417.829H692.558ZM693.325 440.12L697.486 441.117L697.952 439.173L693.791 438.175L693.325 440.12ZM696.719 440.145V441H698.719V440.145H696.719ZM697.719 440H684.467V442H697.719V440ZM685.467 441V440.145H683.467V441H685.467ZM684.7 441.117L688.861 440.12L688.394 438.175L684.233 439.173L684.7 441.117ZM689.628 439.147V418.057H687.628V439.147H689.628ZM689.228 417.257C688.877 416.995 688.391 416.687 687.79 416.338L686.786 418.067C687.363 418.402 687.77 418.664 688.028 418.857L689.228 417.257ZM687.803 416.345C687.213 415.991 686.266 415.46 684.973 414.757L684.017 416.513C685.308 417.216 686.223 417.73 686.774 418.06L687.803 416.345ZM685.495 415.635V415.065H683.495V415.635H685.495ZM684.793 416.02L693.372 413.341L692.775 411.431L684.197 414.11L684.793 416.02ZM693.074 413.386H693.33V411.386H693.074V413.386ZM692.331 412.428L692.559 417.871L694.557 417.788L694.329 412.344L692.331 412.428ZM702.568 441.118L706.757 440.12L706.294 438.175L702.104 439.172L702.568 441.118ZM707.526 439.147V422.161H705.526V439.147H707.526ZM707.526 422.161C707.526 420.84 707.274 419.655 706.715 418.653L704.968 419.628C705.321 420.26 705.526 421.089 705.526 422.161H707.526ZM706.728 418.677C706.184 417.638 705.352 416.86 704.27 416.354L703.423 418.165C704.127 418.495 704.625 418.971 704.955 419.604L706.728 418.677ZM704.27 416.354C703.202 415.854 701.904 415.632 700.427 415.632V417.632C701.723 417.632 702.705 417.829 703.423 418.165L704.27 416.354ZM700.427 415.632C698.823 415.632 697.289 415.876 695.831 416.369L696.472 418.264C697.712 417.845 699.028 417.632 700.427 417.632V415.632ZM695.839 416.366C694.459 416.82 693.308 417.34 692.424 417.944L693.552 419.596C694.226 419.136 695.184 418.687 696.464 418.267L695.839 416.366ZM693.756 418.13L693.186 417.446L691.65 418.726L692.22 419.41L693.756 418.13ZM693.051 418.86C694.386 417.77 695.55 416.886 696.546 416.203L695.415 414.554C694.359 415.277 693.148 416.198 691.785 417.312L693.051 418.86ZM696.549 416.201C697.563 415.501 698.463 414.972 699.253 414.603L698.408 412.791C697.488 413.22 696.488 413.812 695.412 414.556L696.549 416.201ZM699.246 414.607C700.06 414.235 700.819 413.987 701.526 413.853L701.151 411.888C700.262 412.058 699.349 412.361 698.415 412.787L699.246 414.607ZM701.548 413.848C702.271 413.693 703.046 413.614 703.875 413.614V411.614C702.918 411.614 702.002 411.706 701.129 411.893L701.548 413.848ZM703.875 413.614C706.359 413.614 707.943 414.301 708.883 415.465L710.438 414.209C708.985 412.409 706.711 411.614 703.875 411.614V413.614ZM708.883 415.465C709.866 416.682 710.456 418.759 710.456 421.905H712.456C712.456 418.591 711.849 415.956 710.438 414.209L708.883 415.465ZM710.456 421.905V439.147H712.456V421.905H710.456ZM711.223 440.12L715.384 441.117L715.85 439.173L711.689 438.175L711.223 440.12ZM714.617 440.145V441H716.617V440.145H714.617ZM715.617 440H702.336V442H715.617V440ZM703.336 441V440.145H701.336V441H703.336ZM728.871 425.068L728.087 424.448L729.501 425.845L728.871 425.068ZM729.84 423.843L730.576 423.166L729.783 422.304L729.056 423.223L729.84 423.843ZM743.948 439.176L743.212 439.853L743.4 440.057L743.667 440.136L743.948 439.176ZM747.254 440.145H748.254V439.396L747.535 439.185L747.254 440.145ZM747.254 441V442H748.254V441H747.254ZM734.058 441H733.058V442H734.058V441ZM734.058 440.145L733.828 439.172L733.058 439.354V440.145H734.058ZM737.792 439.261L738.022 440.235L739.685 439.841L738.527 438.584L737.792 439.261ZM726.107 426.579L726.842 425.901L726.545 425.579H726.107V426.579ZM724.197 426.579H723.197V427.579H724.197V426.579ZM724.197 424.983V423.983H723.197V424.983H724.197ZM726.648 424.983V425.983H727.013L727.292 425.748L726.648 424.983ZM738.362 415.122L739.006 415.887L740.55 414.587L738.58 414.146L738.362 415.122ZM734.286 414.21H733.286V415.011L734.068 415.186L734.286 414.21ZM734.286 413.184V412.184H733.286V413.184H734.286ZM745.116 413.184H746.116V412.184H745.116V413.184ZM745.116 414.21L745.349 415.183L746.116 414.999V414.21H745.116ZM741.069 415.179L740.836 414.206L740.616 414.259L740.44 414.402L741.069 415.179ZM725.138 439.147H724.138V439.936L724.905 440.12L725.138 439.147ZM729.299 440.145H730.299V439.356L729.532 439.173L729.299 440.145ZM729.299 441V442H730.299V441H729.299ZM716.046 441H715.046V442H716.046V441ZM716.046 440.145L715.812 439.173L715.046 439.358V440.145H716.046ZM720.179 439.147L720.413 440.12L721.179 439.935V439.147H720.179ZM720.179 404.292H721.179V403.768L720.748 403.47L720.179 404.292ZM719.153 403.693L718.674 404.571L718.682 404.576L718.69 404.58L719.153 403.693ZM717.614 402.924L717.178 403.824L717.189 403.829L717.614 402.924ZM715.619 402.012H714.619V402.667L715.219 402.929L715.619 402.012ZM715.619 401.47L715.385 400.498L714.619 400.683V401.47H715.619ZM724.967 399.219V398.219H724.848L724.733 398.247L724.967 399.219ZM725.223 399.219L726.223 399.237L726.242 398.219H725.223V399.219ZM725.138 403.864L724.138 403.846L724.138 403.855V403.864H725.138ZM729.656 425.689L730.625 424.463L729.056 423.223L728.087 424.448L729.656 425.689ZM729.104 424.52L743.212 439.853L744.684 438.499L730.576 423.166L729.104 424.52ZM743.667 440.136L746.973 441.105L747.535 439.185L744.229 438.216L743.667 440.136ZM746.254 440.145V441H748.254V440.145H746.254ZM747.254 440H734.058V442H747.254V440ZM735.058 441V440.145H733.058V441H735.058ZM734.289 441.118L738.022 440.235L737.562 438.288L733.828 439.172L734.289 441.118ZM738.527 438.584L726.842 425.901L725.371 427.257L737.056 439.939L738.527 438.584ZM726.107 425.579H724.197V427.579H726.107V425.579ZM725.197 426.579V424.983H723.197V426.579H725.197ZM724.197 425.983H726.648V423.983H724.197V425.983ZM727.292 425.748L739.006 415.887L737.718 414.357L726.004 424.218L727.292 425.748ZM738.58 414.146L734.505 413.234L734.068 415.186L738.143 416.098L738.58 414.146ZM735.286 414.21V413.184H733.286V414.21H735.286ZM734.286 414.184H745.116V412.184H734.286V414.184ZM744.116 413.184V414.21H746.116V413.184H744.116ZM744.883 413.237L740.836 414.206L741.302 416.152L745.349 415.183L744.883 413.237ZM740.44 414.402L728.242 424.292L729.501 425.845L741.699 415.956L740.44 414.402ZM724.905 440.12L729.066 441.117L729.532 439.173L725.371 438.175L724.905 440.12ZM728.299 440.145V441H730.299V440.145H728.299ZM729.299 440H716.046V442H729.299V440ZM717.046 441V440.145H715.046V441H717.046ZM716.281 441.117L720.413 440.12L719.944 438.175L715.812 439.173L716.281 441.117ZM721.179 439.147V404.292H719.179V439.147H721.179ZM720.748 403.47C720.452 403.265 720.069 403.044 719.615 402.807L718.69 404.58C719.11 404.799 719.411 404.977 719.61 405.114L720.748 403.47ZM719.632 402.816C719.19 402.575 718.658 402.309 718.038 402.019L717.189 403.829C717.786 404.109 718.279 404.356 718.674 404.571L719.632 402.816ZM718.049 402.024C717.446 401.732 716.769 401.422 716.018 401.095L715.219 402.929C715.951 403.248 716.603 403.546 717.178 403.824L718.049 402.024ZM716.619 402.012V401.47H714.619V402.012H716.619ZM715.853 402.443L725.201 400.191L724.733 398.247L715.385 400.498L715.853 402.443ZM724.967 400.219H725.223V398.219H724.967V400.219ZM724.223 399.201L724.138 403.846L726.138 403.883L726.223 399.237L724.223 399.201ZM724.138 403.864V439.147H726.138V403.864H724.138ZM758.755 403.18L759.578 402.612L759.378 402.323L759.042 402.222L758.755 403.18ZM754.366 401.869H753.366V402.614L754.08 402.828L754.366 401.869ZM754.366 400.957V399.957H753.366V400.957H754.366ZM770.098 400.957H771.098V399.957H770.098V400.957ZM770.098 401.869L770.335 402.841L771.098 402.656V401.869H770.098ZM764.94 403.123L764.704 402.152L763.296 402.494L764.115 403.689L764.94 403.123ZM777.85 421.962L777.828 422.962L779.777 423.005L778.675 421.397L777.85 421.962ZM776.568 421.933L775.705 421.428L774.845 422.895L776.546 422.933L776.568 421.933ZM787.512 403.266L788.374 403.772L789.037 402.641L787.772 402.3L787.512 403.266ZM782.325 401.869H781.325V402.636L782.065 402.835L782.325 401.869ZM782.325 400.957V399.957H781.325V400.957H782.325ZM794.038 400.957H795.038V399.957H794.038V400.957ZM794.038 401.869L794.355 402.818L795.038 402.59V401.869H794.038ZM789.678 403.323L789.362 402.374L789.013 402.491L788.822 402.805L789.678 403.323ZM777.85 422.874L776.995 422.356L776.85 422.595V422.874H777.85ZM777.85 438.805H776.85V439.579L777.599 439.773L777.85 438.805ZM782.781 440.088H783.781V439.315L783.033 439.12L782.781 440.088ZM782.781 441V442H783.781V441H782.781ZM767.391 441H766.391V442H767.391V441ZM767.391 440.088L767.14 439.12L766.391 439.314V440.088H767.391ZM772.35 438.805L772.6 439.774L773.35 439.58V438.805H772.35ZM772.35 422.874H773.35V422.562L773.173 422.306L772.35 422.874ZM759.042 402.222L754.653 400.911L754.08 402.828L758.469 404.139L759.042 402.222ZM755.366 401.869V400.957H753.366V401.869H755.366ZM754.366 401.957H770.098V399.957H754.366V401.957ZM769.098 400.957V401.869H771.098V400.957H769.098ZM769.862 400.898L764.704 402.152L765.176 404.095L770.335 402.841L769.862 400.898ZM764.115 403.689L777.025 422.527L778.675 421.397L765.765 402.558L764.115 403.689ZM777.873 420.962L776.59 420.934L776.546 422.933L777.828 422.962L777.873 420.962ZM777.43 422.439L788.374 403.772L786.649 402.76L775.705 421.428L777.43 422.439ZM787.772 402.3L782.585 400.904L782.065 402.835L787.252 404.232L787.772 402.3ZM783.325 401.869V400.957H781.325V401.869H783.325ZM782.325 401.957H794.038V399.957H782.325V401.957ZM793.038 400.957V401.869H795.038V400.957H793.038ZM793.722 400.921L789.362 402.374L789.994 404.272L794.355 402.818L793.722 400.921ZM788.822 402.805L776.995 422.356L778.706 423.392L790.533 403.841L788.822 402.805ZM776.85 422.874V438.805H778.85V422.874H776.85ZM777.599 439.773L782.529 441.056L783.033 439.12L778.102 437.838L777.599 439.773ZM781.781 440.088V441H783.781V440.088H781.781ZM782.781 440H767.391V442H782.781V440ZM768.391 441V440.088H766.391V441H768.391ZM767.641 441.056L772.6 439.774L772.099 437.837L767.14 439.12L767.641 441.056ZM773.35 438.805V422.874H771.35V438.805H773.35ZM773.173 422.306L759.578 402.612L757.932 403.749L771.527 423.442L773.173 422.306ZM806.536 438.634L805.921 437.846L805.921 437.846L806.536 438.634ZM809.301 434.388L808.354 434.066L808.352 434.072L809.301 434.388ZM809.329 420.052L808.377 420.358L808.378 420.36L809.329 420.052ZM806.565 415.635L805.921 416.4L805.928 416.406L805.934 416.411L806.565 415.635ZM797.758 415.549L797.143 414.761L797.143 414.761L797.758 415.549ZM794.965 419.824L794.019 419.503L794.017 419.508L794.965 419.824ZM794.965 434.131L794.012 434.434L794.013 434.437L794.965 434.131ZM797.701 438.577L797.058 439.343L797.064 439.348L797.071 439.354L797.701 438.577ZM795.165 439.746L794.646 440.601L794.655 440.606L795.165 439.746ZM790.32 434.644L789.44 435.119L789.445 435.128L790.32 434.644ZM790.377 419.625L791.251 420.111L791.253 420.108L790.377 419.625ZM795.307 414.466L794.799 413.606L794.795 413.608L795.307 414.466ZM809.187 414.466L808.668 415.321L808.674 415.325L809.187 414.466ZM814.003 419.539L814.882 419.062L814.882 419.062L814.003 419.539ZM813.889 434.587L813.02 434.093L813.019 434.095L813.889 434.587ZM808.902 439.717L808.393 438.857L808.39 438.859L808.902 439.717ZM802.119 441.06C804.043 441.06 805.739 440.526 807.152 439.423L805.921 437.846C804.902 438.643 803.653 439.06 802.119 439.06V441.06ZM807.152 439.423C808.562 438.321 809.578 436.719 810.25 434.704L808.352 434.072C807.77 435.819 806.943 437.048 805.921 437.846L807.152 439.423ZM810.248 434.71C810.94 432.673 811.27 430.191 811.27 427.291H809.27C809.27 430.054 808.954 432.303 808.354 434.066L810.248 434.71ZM811.27 427.291C811.27 424.339 810.95 421.814 810.281 419.745L808.378 420.36C808.963 422.167 809.27 424.468 809.27 427.291H811.27ZM810.282 419.747C809.614 417.662 808.603 416.002 807.196 414.859L805.934 416.411C806.959 417.244 807.791 418.529 808.377 420.358L810.282 419.747ZM807.209 414.87C805.812 413.695 804.114 413.124 802.176 413.124V415.124C803.696 415.124 804.924 415.561 805.921 416.4L807.209 414.87ZM802.176 413.124C800.252 413.124 798.556 413.658 797.143 414.761L798.374 416.338C799.393 415.541 800.642 415.124 802.176 415.124V413.124ZM797.143 414.761C795.734 415.862 794.709 417.473 794.019 419.503L795.912 420.146C796.514 418.376 797.351 417.137 798.374 416.338L797.143 414.761ZM794.017 419.508C793.345 421.524 793.025 423.986 793.025 426.864H795.025C795.025 424.118 795.332 421.887 795.914 420.141L794.017 419.508ZM793.025 426.864C793.025 429.799 793.345 432.331 794.012 434.434L795.919 433.829C795.332 431.98 795.025 429.667 795.025 426.864H793.025ZM794.013 434.437C794.68 436.518 795.678 438.182 797.058 439.343L798.345 437.812C797.331 436.959 796.505 435.659 795.918 433.826L794.013 434.437ZM797.071 439.354C798.484 440.502 800.186 441.06 802.119 441.06V439.06C800.594 439.06 799.351 438.629 798.332 437.801L797.071 439.354ZM802.033 440.57C799.675 440.57 797.563 440.005 795.675 438.886L794.655 440.606C796.871 441.919 799.338 442.57 802.033 442.57V440.57ZM795.684 438.891C793.806 437.751 792.311 436.181 791.195 434.161L789.445 435.128C790.723 437.44 792.458 439.271 794.646 440.601L795.684 438.891ZM791.2 434.17C790.111 432.149 789.553 429.818 789.553 427.149H787.553C787.553 430.104 788.173 432.77 789.44 435.119L791.2 434.17ZM789.553 427.149C789.553 424.465 790.128 422.129 791.251 420.111L789.503 419.139C788.194 421.491 787.553 424.171 787.553 427.149H789.553ZM791.253 420.108C792.387 418.052 793.908 416.465 795.82 415.325L794.795 413.608C792.565 414.938 790.799 416.79 789.501 419.142L791.253 420.108ZM795.816 415.327C797.744 414.188 799.885 413.614 802.261 413.614V411.614C799.546 411.614 797.05 412.275 794.799 413.606L795.816 415.327ZM802.261 413.614C804.679 413.614 806.805 414.189 808.668 415.321L809.706 413.612C807.503 412.274 805.012 411.614 802.261 411.614V413.614ZM808.674 415.325C810.547 416.445 812.029 418.002 813.125 420.017L814.882 419.062C813.622 416.745 811.893 414.92 809.7 413.608L808.674 415.325ZM813.125 420.017C814.212 422.016 814.77 424.346 814.77 427.035H816.77C816.77 424.062 816.151 421.395 814.882 419.062L813.125 420.017ZM814.77 427.035C814.77 429.713 814.179 432.057 813.02 434.093L814.759 435.082C816.108 432.71 816.77 430.019 816.77 427.035H814.77ZM813.019 434.095C811.867 436.133 810.327 437.714 808.393 438.857L809.411 440.578C811.657 439.251 813.442 437.412 814.76 435.08L813.019 434.095ZM808.39 438.859C806.48 439.997 804.369 440.57 802.033 440.57V442.57C804.714 442.57 807.182 441.908 809.414 440.576L808.39 438.859ZM827.072 435.357L826.174 435.796L826.18 435.809L826.187 435.821L827.072 435.357ZM829.01 437.152L828.595 438.062L828.603 438.066L828.612 438.07L829.01 437.152ZM836.563 437.038L836.896 437.982L836.904 437.979L836.563 437.038ZM839.669 435.414L840.445 434.782L839.819 434.014L839.045 434.633L839.669 435.414ZM840.296 436.183L840.923 436.963L841.708 436.333L841.072 435.552L840.296 436.183ZM836.762 438.862L837.335 439.682L837.335 439.682L836.762 438.862ZM833.998 440.515L834.429 441.418L834.429 441.418L833.998 440.515ZM831.547 441.342L831.36 440.36L831.355 440.361L831.547 441.342ZM823.339 439.347L822.557 439.97L822.561 439.975L823.339 439.347ZM821.543 415.606H822.543V414.812L821.77 414.632L821.543 415.606ZM816.755 414.495H815.755V415.289L816.529 415.469L816.755 414.495ZM816.755 413.383L816.707 412.385L815.755 412.431V413.383H816.755ZM826.759 412.899L827.753 413.004L827.876 411.844L826.711 411.9L826.759 412.899ZM826.474 415.606L825.479 415.502L825.474 415.554V415.606H826.474ZM838.729 441.656L837.729 441.682L837.755 442.656H838.729V441.656ZM838.586 436.297H837.586V436.311L837.587 436.324L838.586 436.297ZM838.586 415.606H839.586V414.812L838.813 414.632L838.586 415.606ZM833.798 414.495H832.798V415.289L833.572 415.469L833.798 414.495ZM833.798 413.383L833.75 412.385L832.798 412.431V413.383H833.798ZM843.83 412.899L844.825 413.004L844.947 411.844L843.782 411.9L843.83 412.899ZM843.545 415.606L842.551 415.502L842.545 415.554V415.606H843.545ZM843.545 437.808H842.545V438.343L842.991 438.64L843.545 437.808ZM844.315 438.235L843.868 439.13L843.897 439.144L843.927 439.157L844.315 438.235ZM845.483 438.72L845.105 439.646L845.112 439.648L845.119 439.651L845.483 438.72ZM846.737 439.233L846.344 440.152L846.369 440.163L846.396 440.173L846.737 439.233ZM847.82 439.603H848.82V438.868L848.119 438.649L847.82 439.603ZM847.82 440.316L847.97 441.305L848.82 441.176V440.316H847.82ZM838.985 441.656V442.656H839.061L839.135 442.644L838.985 441.656ZM825.474 432.279C825.474 433.614 825.689 434.802 826.174 435.796L827.971 434.918C827.658 434.278 827.474 433.414 827.474 432.279H825.474ZM826.187 435.821C826.715 436.829 827.534 437.578 828.595 438.062L829.426 436.243C828.739 435.929 828.266 435.481 827.958 434.893L826.187 435.821ZM828.612 438.07C829.658 438.524 830.959 438.722 832.459 438.722V436.722C831.109 436.722 830.111 436.541 829.409 436.235L828.612 438.07ZM832.459 438.722C834.01 438.722 835.491 438.477 836.896 437.981L836.23 436.096C835.051 436.512 833.796 436.722 832.459 436.722V438.722ZM836.904 437.979C838.277 437.481 839.421 436.894 840.294 436.195L839.045 434.633C838.398 435.15 837.471 435.646 836.222 436.098L836.904 437.979ZM838.894 436.046L839.521 436.815L841.072 435.552L840.445 434.782L838.894 436.046ZM839.67 435.404C838.332 436.478 837.173 437.356 836.19 438.043L837.335 439.682C838.366 438.963 839.563 438.055 840.923 436.963L839.67 435.404ZM836.19 438.043C835.214 438.724 834.341 439.244 833.567 439.613L834.429 441.418C835.327 440.989 836.297 440.407 837.335 439.682L836.19 438.043ZM833.567 439.613C832.798 439.98 832.063 440.226 831.36 440.36L831.734 442.324C832.627 442.154 833.526 441.849 834.429 441.418L833.567 439.613ZM831.355 440.361C830.646 440.499 829.884 440.57 829.067 440.57V442.57C829.999 442.57 830.89 442.489 831.738 442.323L831.355 440.361ZM829.067 440.57C826.627 440.57 825.06 439.886 824.117 438.719L822.561 439.975C824.012 441.772 826.264 442.57 829.067 442.57V440.57ZM824.121 438.724C823.13 437.481 822.543 435.434 822.543 432.393H820.543C820.543 435.622 821.154 438.211 822.557 439.97L824.121 438.724ZM822.543 432.393V415.606H820.543V432.393H822.543ZM821.77 414.632L816.982 413.521L816.529 415.469L821.317 416.581L821.77 414.632ZM817.755 414.495V413.383H815.755V414.495H817.755ZM816.804 414.382L826.807 413.898L826.711 411.9L816.707 412.385L816.804 414.382ZM825.764 412.794L825.479 415.502L827.468 415.711L827.753 413.004L825.764 412.794ZM825.474 415.606V432.279H827.474V415.606H825.474ZM839.729 441.629L839.586 436.271L837.587 436.324L837.729 441.682L839.729 441.629ZM839.586 436.297V415.606H837.586V436.297H839.586ZM838.813 414.632L834.025 413.521L833.572 415.469L838.36 416.581L838.813 414.632ZM834.798 414.495V413.383H832.798V414.495H834.798ZM833.847 414.382L843.879 413.898L843.782 411.9L833.75 412.385L833.847 414.382ZM842.836 412.794L842.551 415.502L844.54 415.711L844.825 413.004L842.836 412.794ZM842.545 415.606V437.808H844.545V415.606H842.545ZM842.991 438.64C843.214 438.789 843.514 438.953 843.868 439.13L844.762 437.341C844.432 437.176 844.219 437.055 844.1 436.976L842.991 438.64ZM843.927 439.157C844.291 439.311 844.684 439.473 845.105 439.646L845.862 437.794C845.447 437.625 845.06 437.464 844.703 437.314L843.927 439.157ZM845.119 439.651C845.547 439.819 845.955 439.986 846.344 440.152L847.131 438.314C846.722 438.138 846.294 437.963 845.848 437.789L845.119 439.651ZM846.396 440.173C846.823 440.328 847.199 440.457 847.522 440.558L848.119 438.649C847.834 438.56 847.488 438.442 847.079 438.293L846.396 440.173ZM846.82 439.603V440.316H848.82V439.603H846.82ZM847.671 439.327L838.836 440.667L839.135 442.644L847.97 441.305L847.671 439.327ZM838.985 440.656H838.729V442.656H838.985V440.656ZM858.2 402.895L859.2 402.911L859.2 402.903V402.895H858.2ZM858.171 404.748L857.171 404.733L857.171 404.74V404.748H858.171ZM858 406.315L857.015 406.147L857.012 406.16L857.01 406.174L858 406.315ZM857.63 408.766L858.618 408.921L858.618 408.921L857.63 408.766ZM857.088 412.158L856.101 411.998L856.101 411.998L857.088 412.158ZM856.461 416.518L857.453 416.648L857.453 416.647L856.461 416.518ZM855.834 421.876L854.84 421.771L854.84 421.771L855.834 421.876ZM855.264 428.346V429.346H856.194L856.262 428.419L855.264 428.346ZM854.096 428.346L853.098 428.419L853.166 429.346H854.096V428.346ZM853.526 421.876L852.53 421.972L852.531 421.982L853.526 421.876ZM852.899 416.518L851.907 416.647L851.909 416.66L852.899 416.518ZM852.272 412.158L851.282 412.303L851.284 412.311L851.285 412.318L852.272 412.158ZM851.759 408.766L850.771 408.921L851.759 408.766ZM851.36 406.315L850.37 406.457L850.372 406.471L850.374 406.484L851.36 406.315ZM851.217 404.748H852.217V404.74L852.217 404.733L851.217 404.748ZM851.189 402.895H850.189V402.903L850.189 402.911L851.189 402.895ZM851.702 401.499L852.428 402.187L852.437 402.177L852.445 402.168L851.702 401.499ZM853.013 400.672L853.319 401.625L853.329 401.621L853.339 401.618L853.013 400.672ZM856.404 400.672L856.068 401.614L856.083 401.62L856.098 401.625L856.404 400.672ZM857.687 401.499L856.925 402.147L856.942 402.167L856.961 402.187L857.687 401.499ZM857.459 435.015L856.743 435.713L856.752 435.722L857.459 435.015ZM857.459 440.401L856.743 439.704L856.743 439.704L857.459 440.401ZM851.901 440.401L851.185 441.099L851.194 441.109L851.901 440.401ZM857.2 402.88L857.171 404.733L859.171 404.763L859.2 402.911L857.2 402.88ZM857.171 404.748C857.171 405.044 857.125 405.502 857.015 406.147L858.986 406.484C859.103 405.799 859.171 405.212 859.171 404.748H857.171ZM857.01 406.174C856.916 406.833 856.793 407.645 856.642 408.612L858.618 408.921C858.77 407.95 858.894 407.128 858.99 406.457L857.01 406.174ZM856.642 408.612C856.49 409.579 856.31 410.707 856.101 411.998L858.075 412.318C858.285 411.025 858.465 409.892 858.618 408.921L856.642 408.612ZM856.101 411.998C855.89 413.303 855.68 414.767 855.47 416.39L857.453 416.647C857.661 415.04 857.869 413.597 858.075 412.318L856.101 411.998ZM855.47 416.389C855.259 417.994 855.05 419.789 854.84 421.771L856.829 421.982C857.037 420.012 857.245 418.235 857.453 416.648L855.47 416.389ZM854.84 421.771C854.63 423.76 854.439 425.927 854.267 428.273L856.262 428.419C856.432 426.091 856.621 423.945 856.829 421.982L854.84 421.771ZM855.264 427.346H854.096V429.346H855.264V427.346ZM855.093 428.273C854.921 425.927 854.731 423.76 854.52 421.771L852.531 421.982C852.739 423.945 852.928 426.091 853.098 428.419L855.093 428.273ZM854.521 421.781C854.33 419.793 854.119 417.991 853.889 416.377L851.909 416.66C852.134 418.238 852.342 420.008 852.53 421.972L854.521 421.781ZM853.891 416.39C853.681 414.767 853.47 413.303 853.259 411.998L851.285 412.318C851.492 413.597 851.699 415.04 851.907 416.647L853.891 416.39ZM853.261 412.013C853.071 410.718 852.899 409.585 852.747 408.612L850.771 408.921C850.922 409.886 851.093 411.014 851.282 412.303L853.261 412.013ZM852.747 408.612C852.594 407.64 852.461 406.818 852.345 406.147L850.374 406.484C850.487 407.143 850.619 407.955 850.771 408.921L852.747 408.612ZM852.35 406.174C852.257 405.526 852.217 405.058 852.217 404.748H850.217C850.217 405.198 850.272 405.775 850.37 406.457L852.35 406.174ZM852.217 404.733L852.189 402.88L850.189 402.911L850.217 404.763L852.217 404.733ZM852.189 402.895C852.189 402.541 852.288 402.335 852.428 402.187L850.976 400.811C850.432 401.385 850.189 402.11 850.189 402.895H852.189ZM852.445 402.168C852.658 401.931 852.939 401.747 853.319 401.625L852.707 399.72C852.023 399.94 851.43 400.307 850.959 400.83L852.445 402.168ZM853.339 401.618C853.787 401.463 854.238 401.387 854.694 401.387V399.387C854.011 399.387 853.34 399.502 852.687 399.727L853.339 401.618ZM854.694 401.387C855.196 401.387 855.652 401.466 856.068 401.614L856.741 399.731C856.093 399.499 855.408 399.387 854.694 399.387V401.387ZM856.098 401.625C856.475 401.746 856.737 401.925 856.925 402.147L858.449 400.851C857.991 400.313 857.398 399.941 856.71 399.72L856.098 401.625ZM856.961 402.187C857.101 402.335 857.2 402.541 857.2 402.895H859.2C859.2 402.11 858.957 401.385 858.413 400.811L856.961 402.187ZM854.694 434.903C855.571 434.903 856.226 435.182 856.743 435.713L858.175 434.317C857.248 433.366 856.06 432.903 854.694 432.903V434.903ZM856.752 435.722C857.278 436.248 857.542 436.883 857.542 437.694H859.542C859.542 436.377 859.084 435.226 858.166 434.308L856.752 435.722ZM857.542 437.694C857.542 438.506 857.277 439.155 856.743 439.704L858.175 441.099C859.085 440.166 859.542 439.01 859.542 437.694H857.542ZM856.743 439.704C856.226 440.234 855.571 440.513 854.694 440.513V442.513C856.06 442.513 857.248 442.051 858.175 441.099L856.743 439.704ZM854.694 440.513C853.818 440.513 853.148 440.234 852.608 439.694L851.194 441.109C852.137 442.051 853.329 442.513 854.694 442.513V440.513ZM852.618 439.704C852.083 439.155 851.818 438.506 851.818 437.694H849.818C849.818 439.01 850.275 440.166 851.185 441.099L852.618 439.704ZM851.818 437.694C851.818 436.883 852.083 436.248 852.608 435.722L851.194 434.308C850.276 435.226 849.818 436.377 849.818 437.694H851.818ZM852.608 435.722C853.148 435.183 853.818 434.903 854.694 434.903V432.903C853.329 432.903 852.137 433.365 851.194 434.308L852.608 435.722Z" fill="black" fill-opacity="0.88" mask="url(#path-3-outside-1_0_139)"/>
</g>
<defs>
<filter id="filter0_d_0_139" x="0" y="0" width="1448" height="908" filterUnits="userSpaceOnUse" color-interpolation-filters="sRGB">
<feFlood flood-opacity="0" result="BackgroundImageFix"/>
<feColorMatrix in="SourceAlpha" type="matrix" values="0 0 0 0 0 0 0 0 0 0 0 0 0 0 0 0 0 0 127 0" result="hardAlpha"/>
<feOffset dy="4"/>
<feGaussianBlur stdDeviation="2"/>
<feComposite in2="hardAlpha" operator="out"/>
<feColorMatrix type="matrix" values="0 0 0 0 0 0 0 0 0 0 0 0 0 0 0 0 0 0 0.25 0"/>
<feBlend mode="normal" in2="BackgroundImageFix" result="effect1_dropShadow_0_139"/>
<feBlend mode="normal" in="SourceGraphic" in2="effect1_dropShadow_0_139" result="shape"/>
</filter>
</defs>
</svg>
